<svg height="512pt" viewBox="-2 0 512 512.00025" width="512pt" xmlns="http://www.w3.org/2000/svg"><path d="m407.726562 231.765625h-153.289062v-221.765625zm0 0" fill="#ffc66c"/><path d="m101.148438 231.765625h153.289062v-174.917969zm0 0" fill="#feda9b"/><path d="m94.246094 405.78125c-13.136719.171875-23.730469 10.875-23.730469 24.054688 0 13.285156 10.769531 24.054687 24.050781 24.054687h-60.515625c-13.28125 0-24.050781 10.769531-24.050781 24.054687 0 13.285157 10.769531 24.054688 24.050781 24.054688h358.296875c13.28125 0 24.046875-10.769531 24.046875-24.054688 0-13.285156-10.765625-24.054687-24.046875-24.054687h39.449219c13.28125 0 24.050781-10.769531 24.050781-24.054687 0-13.179688-10.59375-23.882813-23.730468-24.054688" fill="#4dbaf6"/><path d="m421.871094 405.78125h52.953125c13.28125 0 24.050781-10.769531 24.050781-24.054688 0-13.285156-10.769531-24.054687-24.050781-24.054687h-439.238281c-13.285157 0-24.050782 10.769531-24.050782 24.054687 0 13.285157 10.765625 24.054688 24.050782 24.054688h58.980468c-.109375 0-.214844 0-.320312 0h223.945312" fill="#c2e8f7"/><path d="m406.34375 357.671875 30.667969-89.5h-365.148438l30.667969 89.5zm0 0" fill="#ff5d5d"/><path d="m368.445312 415.78125c-.648437 0-1.300781-.0625-1.949218-.191406-.640625-.128906-1.269532-.320313-1.871094-.570313-.597656-.25-1.179688-.558593-1.730469-.917969-.539062-.371093-1.058593-.792968-1.519531-1.25-.457031-.460937-.878906-.972656-1.238281-1.519531-.359375-.542969-.667969-1.121093-.917969-1.722656-.25-.609375-.441406-1.238281-.570312-1.867187-.132813-.652344-.199219-1.3125-.199219-1.960938 0-.652344.066406-1.3125.199219-1.949219.128906-.640625.320312-1.273437.570312-1.871093.25-.609376.558594-1.191407.917969-1.730469.359375-.550781.78125-1.058594 1.238281-1.519531.460938-.460938.980469-.878907 1.519531-1.242188.550781-.359375 1.132813-.667969 1.730469-.917969.601562-.25 1.230469-.441406 1.871094-.570312 1.289062-.261719 2.621094-.261719 3.910156 0 .640625.128906 1.269531.320312 1.871094.570312.597656.25 1.179687.558594 1.71875.917969.550781.363281 1.0625.78125 1.519531 1.242188.472656.460937.882813.96875 1.25 1.519531.359375.539062.671875 1.121093.921875 1.730469.25.597656.441406 1.230468.570312 1.871093.128907.636719.1875 1.296875.1875 1.949219 0 .648438-.058593 1.308594-.1875 1.960938-.132812.628906-.320312 1.257812-.570312 1.867187-.25.601563-.558594 1.179687-.921875 1.722656-.367187.546875-.777344 1.058594-1.25 1.519531-.457031.457032-.96875.878907-1.519531 1.25-.539063.359376-1.121094.667969-1.71875.917969-.601563.25-1.230469.441407-1.871094.570313-.648438.128906-1.300781.191406-1.960938.191406zm0 0"/><path d="m101.148438 241.765625h306.578124c3.71875 0 7.128907-2.0625 8.859376-5.355469 1.726562-3.292968 1.480468-7.269531-.632813-10.328125l-153.289063-221.765625c-2.488281-3.601562-7.023437-5.167968-11.207031-3.859375-4.175781 1.300781-7.019531 5.167969-7.019531 9.542969v43.085938l-150.8125 172.089843c-2.585938 2.953125-3.207031 7.144531-1.585938 10.722657 1.621094 3.574218 5.183594 5.867187 9.109376 5.867187zm163.289062-199.710937 124.222656 179.710937h-124.222656zm-20 41.375v138.335937h-121.230469zm0 0"/><path d="m474.824219 347.671875h-54.484375l26.132812-76.257813c1.046875-3.054687.550782-6.425781-1.324218-9.054687-1.878907-2.628906-4.90625-4.1875-8.136719-4.1875h-365.148438c-3.230469 0-6.261719 1.558594-8.136719 4.1875-1.878906 2.628906-2.371093 6-1.324218 9.054687l26.132812 76.257813h-52.949218c-18.777344 0-34.050782 15.277344-34.050782 34.054687 0 18.777344 15.273438 34.054688 34.050782 34.054688h27.992187c-1.964844 4.292969-3.0625 9.054688-3.0625 14.054688 0 5.007812 1.085937 9.765624 3.035156 14.054687h-29.5c-18.773437 0-34.050781 15.277344-34.050781 34.054687 0 18.777344 15.273438 34.054688 34.050781 34.054688h358.296875c18.773438 0 34.050782-15.277344 34.050782-34.054688 0-5.007812-1.089844-9.769531-3.039063-14.054687h8.4375c18.777344 0 34.050781-15.277344 34.050781-34.054687 0-5-1.097656-9.761719-3.0625-14.054688h12.039063c18.773437 0 34.050781-15.277344 34.050781-34.054688 0-18.777343-15.277344-34.054687-34.050781-34.054687zm-388.964844-69.5h337.15625l-23.816406 69.5h-289.523438zm388.964844 117.609375h-52.953125c-5.523438 0-10 4.476562-10 10s4.476562 10 10 10h10.058594.058593c7.640625.101562 13.859375 6.402344 13.859375 14.054688 0 7.75-6.304687 14.054687-14.050781 14.054687h-188.964844c-5.523437 0-10 4.476563-10 10s4.476563 10 10 10h149.515625c7.746094 0 14.050782 6.304687 14.050782 14.054687s-6.304688 14.054688-14.050782 14.054688h-358.296875c-7.746093 0-14.050781-6.304688-14.050781-14.054688s6.304688-14.054687 14.050781-14.054687h60.515625c5.523438 0 10-4.476563 10-10s-4.476562-10-10-10c-7.746094 0-14.050781-6.304687-14.050781-14.054687 0-7.632813 6.191406-13.925782 13.808594-14.054688h223.867187c5.519532 0 10-4.476562 10-10s-4.480468-10-10-10h-282.605468c-7.746094 0-14.050782-6.304688-14.050782-14.054688s6.304688-14.054687 14.050782-14.054687h439.238281c7.746093 0 14.050781 6.304687 14.050781 14.054687s-6.304688 14.054688-14.050781 14.054688zm0 0"/></svg>